Patient4_TMGait_0pt7_01_right_41_GRF.mot
version=1
nRows=32
nColumns=19
inDegrees=no
endheader
time	F1x	F1y	F1z	M1x	M1y	M1z	F2x	F2y	F2z	M2x	M2y	M2z	EC1x	EC1y	EC1z	EC2x	EC2y	EC2z
46.89	19.0704	752.4715	51.4651	-243.7045	-54.9205	808.9648	-5.3447	-5.7732	-9.47	2.0028	6.9676	-0.6109	-0.0592	0.0182	-0.0073	-0.0462	0.0165	0.9585
46.9017	16.9161	753.4415	54.488	-244.546	-56.225	805.4354	-3.7281	-2.6063	-6.5606	1.9246	4.9455	1.1992	-0.0592	0.0182	-0.0073	-0.0462	0.0165	0.9585
46.9134	15.4541	754.1158	56.8277	-245.1885	-56.8123	801.1362	-2.3739	0.12081	-4.0307	1.8471	3.175	2.7909	-0.0592	0.0182	-0.0073	-0.0462	0.0165	0.9585
46.9251	14.7657	754.3539	58.3291	-245.5353	-56.6213	796.1577	-1.3513	2.24	-2.062	1.7899	1.7943	4.0549	-0.0592	0.0182	-0.0073	-0.0462	0.0165	0.9585
46.9369	14.7888	754.0039	59.0233	-245.5136	-55.7264	790.523	-0.66345	3.7406	-0.68328	1.7587	0.83605	4.9684	-0.0592	0.0182	-0.0073	-0.0462	0.0165	0.9585
46.9486	15.3823	752.9181	59.0717	-245.0646	-54.3001	784.2288	-0.26652	4.6857	0.18853	1.7465	0.24205	5.5424	-0.0592	0.0182	-0.0073	-0.0462	0.0165	0.9585
46.9603	16.395	750.979	58.6502	-244.1474	-52.5152	777.2513	-0.099747	5.1736	0.65257	1.7389	-0.052641	5.8108	-0.0592	0.0182	-0.0073	-0.0462	0.0165	0.9585
46.972	17.6947	748.1229	57.9477	-242.7369	-50.5482	769.6031	-0.10024	5.2806	0.83085	1.7098	-0.13304	5.7834	-0.0592	0.0182	-0.0073	-0.0462	0.0165	0.9585
46.9837	19.1987	744.3608	57.1205	-240.8337	-48.534	761.3243	-0.21095	5.0539	0.82165	1.6258	-0.068814	5.4549	-0.0592	0.0182	-0.0073	-0.0462	0.0165	0.9585
46.9954	20.8225	739.7701	56.3513	-238.4589	-46.6405	752.5038	-0.39145	4.5077	0.71246	1.4492	0.072147	4.7907	-0.0592	0.0182	-0.0073	-0.0462	0.0165	0.9585
47.0071	22.5373	734.5076	55.8057	-235.6646	-45.0167	743.2809	-0.61019	3.6077	0.5568	1.1352	0.24442	3.7137	-0.0592	0.0182	-0.0073	-0.0462	0.0165	0.9585
47.0189	24.3213	728.8421	55.6663	-232.5474	-43.8314	733.9047	-0.82703	2.3069	0.39146	0.64298	0.41504	2.1395	-0.0592	0.0182	-0.0073	-0.0462	0.0165	0.9585
47.0306	26.1872	723.1504	56.0442	-229.2549	-43.1805	724.7138	-0.99236	0.56815	0.24336	-0.052873	0.55022	0.0074101	-0.0592	0.0182	-0.0073	-0.0462	0.0165	0.9585
47.0423	28.1757	717.8764	57.0261	-225.9668	-43.1283	716.117	-1.0386	-1.5854	0.12334	-0.94593	0.61433	-2.65	-0.0592	0.0182	-0.0073	-0.0462	0.0165	0.9585
47.054	30.35	713.5027	58.607	-222.8849	-43.6465	708.5149	-0.86945	-4.0153	0.056192	-1.9749	0.5408	-5.6529	-0.0592	0.0182	-0.0073	-0.0462	0.0165	0.9585
47.0657	32.7463	710.465	60.7464	-220.199	-44.6743	702.2605	-0.3726	-6.3856	0.05464	-2.9889	0.26336	-8.576	-0.0592	0.0182	-0.0073	-0.0462	0.0165	0.9585
47.0774	35.3917	709.1579	63.3341	-218.0855	-46.0904	697.6658	0.58604	-8.064	0.13755	-3.7071	-0.29647	-10.6422	-0.0592	0.0182	-0.0073	-0.0462	0.0165	0.9585
47.0891	38.2466	709.8472	66.2427	-216.6755	-47.7709	694.9273	2.1317	-8.035	0.30862	-3.6836	-1.1976	-10.5951	-0.0592	0.0182	-0.0073	-0.0462	0.0165	0.9585
47.1009	41.24	712.6036	69.3412	-216.0299	-49.599	694.0612	4.3496	-4.8442	0.58476	-2.2843	-2.4891	-6.6337	-0.0592	0.0182	-0.0073	-0.0462	0.0165	0.9585
47.1126	44.2726	717.1549	72.4844	-216.096	-51.4553	694.7872	7.2193	3.3964	0.96258	1.3079	-4.1551	3.5858	-0.0592	0.0182	-0.0073	-0.0462	0.0165	0.9585
47.1243	47.2267	722.7608	75.5044	-216.6709	-53.2114	696.4204	10.5557	18.8756	1.4303	8.0393	-6.091	22.784	-0.0592	0.0182	-0.0073	-0.0462	0.0165	0.9585
47.136	49.9833	728.1999	78.1724	-217.3963	-54.688	697.849	13.8801	43.7687	1.93	18.8455	-8.011	53.6855	-0.0592	0.0182	-0.0073	-0.0462	0.0165	0.9585
47.1477	52.4585	731.8058	80.2159	-217.7711	-55.6623	697.5677	16.3215	79.6553	2.3663	34.4002	-9.4066	98.2775	-0.0592	0.0182	-0.0073	-0.0462	0.0165	0.9585
47.1594	54.5825	731.5889	81.315	-217.1951	-55.8691	693.7798	16.4888	126.6392	2.5501	54.7315	-9.4391	156.7348	-0.0592	0.0182	-0.0073	-0.0462	0.0165	0.9585
47.1711	56.2983	725.3947	81.1219	-215.024	-55.0257	684.5593	12.6723	182.3944	2.2012	78.8119	-7.0451	226.2261	-0.0592	0.0182	-0.0073	-0.0462	0.0165	0.9585
47.1829	57.5311	711.1836	79.3194	-210.6502	-52.8906	668.0989	4.1607	241.8902	0.87532	104.4316	-1.4202	300.5419	-0.0592	0.0182	-0.0073	-0.0462	0.0165	0.9585
47.1946	58.1657	687.4086	75.703	-203.6064	-49.3408	643.0535	-7.5802	297.9997	-1.9228	128.4955	7.338	370.6951	-0.0592	0.0182	-0.0073	-0.0462	0.0165	0.9585
47.2063	58.0203	653.3017	70.2895	-193.6442	-44.4771	608.8131	-20.0779	344.1261	-6.278	148.2197	18.137	428.1372	-0.0592	0.0182	-0.0073	-0.0462	0.0165	0.9585
47.218	56.9021	609.1503	63.3044	-180.8119	-38.5822	565.725	-31.5035	378.8797	-11.4037	163.0353	29.221	470.7734	-0.0592	0.0182	-0.0073	-0.0462	0.0165	0.9585
47.2297	54.6613	556.2232	55.1841	-165.4329	-32.0981	515.0139	-41.0682	405.7848	-16.3275	174.4775	39.1236	502.7864	-0.0592	0.0182	-0.0073	-0.0462	0.0165	0.9585
47.2414	51.2508	496.4637	46.4861	-148.0264	-25.5224	458.4857	-48.3014	429.8721	-20.4437	184.7254	46.9736	530.3727	-0.0592	0.0182	-0.0073	-0.0462	0.0165	0.9585
47.2531	46.6679	432.1307	37.7535	-129.2117	-19.3109	398.2098	-52.9882	455.1328	-23.4115	195.5038	52.3146	558.4822	-0.0592	0.0182	-0.0073	-0.0462	0.0165	0.9585
